<?xml version="1.0" encoding="utf-8"?>
<!-- Generator: Adobe Illustrator 23.0.2, SVG Export Plug-In . SVG Version: 6.00 Build 0)  -->
<svg version="1.1" id="Capa_1" xmlns="http://www.w3.org/2000/svg" xmlns:xlink="http://www.w3.org/1999/xlink" x="0px" y="0px"
	 viewBox="0 0 1366 768" style="enable-background:new 0 0 1366 768;" xml:space="preserve">
<style type="text/css">
	.st0{fill:#FFFFFF;}
</style>
<g id="XMLID_307_">
	<g id="XMLID_2_">
		<g id="XMLID_3_">
			<g id="XMLID_4_">
				<g id="XMLID_5_">
					<g id="XMLID_211_">
						<g id="XMLID_212_">
							<g id="XMLID_213_">
								<g id="XMLID_214_">
									<g id="XMLID_215_">
										<polygon id="XMLID_68_" class="st0" points="1077.09,155.4 1077.09,327.05 902.31,327.05 902.31,155.4 804.13,155.4 
											804.13,611.39 902.31,611.39 902.31,408.51 1077.09,408.51 1077.09,611.5 1177.71,611.5 1177.71,155.4 										"/>
										<g id="XMLID_216_">
											<g id="XMLID_217_">
												<g id="XMLID_224_">
													<polygon id="XMLID_67_" class="st0" points="353.61,155.44 353.61,445.16 449.95,178.1 450.03,177.87 450.03,155.44 
																											"/>
													<path id="XMLID_66_" class="st0" d="M322.86,519.54c-13.92,9.43-32.98,14.19-56.67,14.19
														c-24.59,0-43.82-7.84-57.13-23.32c-13.36-15.54-20.15-37.03-20.15-63.88v-291.1H92.83v299.67
														c0,53.09,15.83,93.06,47.05,118.81c31.15,25.66,73.99,38.68,127.33,38.68c7.97,0,15.89-0.3,24.21-0.89l0.92-0.08
														l34.11-94.53L322.86,519.54z"/>
												</g>
												<path id="XMLID_221_" class="st0" d="M585.85,155.44H473.91L311.06,611.68h103.39l32.08-93.54h165.26l23.76,77.53
													V296.51L585.85,155.44z M583.6,438.15H472.07l56.42-175.91L583.6,438.15z"/>
												<g id="XMLID_218_">
													<polygon id="XMLID_63_" class="st0" points="790.39,236.82 790.39,155.4 649.6,155.4 649.6,611.39 790.39,611.39 
														790.39,527.91 744.54,527.91 744.54,408.51 790.39,408.51 790.39,327.05 744.54,327.05 744.54,236.82 													"/>
													<rect id="XMLID_62_" x="916.66" y="530.11" class="st0" width="77.95" height="81.28"/>
												</g>
											</g>
										</g>
									</g>
								</g>
							</g>
						</g>
					</g>
				</g>
			</g>
			<rect id="XMLID_9_" x="916.66" y="156.34" class="st0" width="77.95" height="81.28"/>
		</g>
	</g>
	<g id="XMLID_276_">
		<path id="XMLID_277_" class="st0" d="M1273.17,189.6c0,19.11-15.01,34.12-34.53,34.12c-19.32,0-34.73-15-34.73-34.12
			c0-18.7,15.41-33.7,34.73-33.7C1258.16,155.9,1273.17,170.9,1273.17,189.6z M1212.54,189.6c0,15,11.09,26.92,26.3,26.92
			c14.79,0,25.69-11.92,25.69-26.72c0-15-10.9-27.12-25.9-27.12C1223.63,162.68,1212.54,174.81,1212.54,189.6z M1233.29,207.28
			h-7.81v-33.7c3.08-0.62,7.4-1.03,12.95-1.03c6.37,0,9.25,1.03,11.71,2.47c1.85,1.44,3.29,4.11,3.29,7.4c0,3.7-2.88,6.58-6.99,7.81
			v0.41c3.29,1.23,5.14,3.7,6.17,8.22c1.02,5.14,1.65,7.19,2.46,8.43h-8.42c-1.03-1.23-1.65-4.32-2.67-8.22
			c-0.62-3.7-2.68-5.34-6.99-5.34h-3.7V207.28z M1233.5,188.16h3.7c4.32,0,7.81-1.44,7.81-4.93c0-3.08-2.26-5.13-7.19-5.13
			c-2.05,0-3.49,0.2-4.32,0.41V188.16z"/>
	</g>
</g>
</svg>
